# xmcd CD database file
#
# Track frame offsets:
#	150
#	43910
#	84326
#	119838
#	160215
#	191075
#	217565
#
# Disc length: 3315 seconds
#
# Revision: 0
# Processed by: cddbd v1.5.2PL0 Copyright (c) Steve Scherf et al.
# Submitted via: CDex 1.51
#
DISCID=5b0cf107
DTITLE=aber getz ma ehrlich - fünf and zwei
DYEAR=1998
DGENRE=Jazz
TTITLE0=just one of those things (cole porter)
TTITLE1=bass movement (ralf ehrlich)
TTITLE2=soy califa (dexter gordon)
TTITLE3=dienda (kenny kirkland)
TTITLE4=chill (joshua redman)
TTITLE5=little bintz (ralf ehrlich)
TTITLE6=blue trane (john coltrane)
EXTD=YEAR: 1998
EXTT0=
EXTT1=
EXTT2=
EXTT3=
EXTT4=
EXTT5=
EXTT6=
PLAYORDER=
